<?xml version="1.0" standalone="no"?>
<!DOCTYPE svg PUBLIC "-//W3C//DTD SVG 20010904//EN"
 "http://www.w3.org/TR/2001/REC-SVG-20010904/DTD/svg10.dtd">
<svg version="1.0" xmlns="http://www.w3.org/2000/svg"
 width="1168.000000pt" height="1280.000000pt" viewBox="0 0 1168.000000 1280.000000"
 preserveAspectRatio="xMidYMid meet">

<g transform="translate(0.000000,1280.000000) scale(0.100000,-0.100000)"
fill="#000000" stroke="none">
<path d="M0 6400 l0 -6400 5840 0 5840 0 0 6400 0 6400 -5840 0 -5840 0 0
-6400z m8363 5824 c184 -47 321 -173 374 -344 24 -75 24 -264 1 -338 -56 -174
-211 -316 -385 -352 -75 -16 -233 -8 -298 15 -101 35 -197 111 -264 208 -109
159 -114 426 -11 587 39 61 134 150 190 179 110 56 276 76 393 45z m908 6
c124 -23 227 -100 277 -207 l27 -58 3 -382 3 -383 -116 0 -115 0 0 355 c0 387
-1 397 -56 445 -24 20 -40 25 -86 25 -46 0 -61 -4 -83 -25 -54 -49 -55 -60
-55 -445 l0 -355 -115 0 -116 0 3 378 c3 326 6 384 21 429 34 101 154 200 270
223 59 11 77 11 138 0z m-8098 -35 c77 -37 139 -107 166 -187 20 -58 21 -83
21 -435 l0 -373 -115 0 -115 0 0 175 0 175 -135 0 -135 0 0 -175 0 -175 -115
0 -116 0 3 393 3 392 28 55 c70 136 175 192 352 187 85 -3 108 -8 158 -32z
m2017 13 c77 -27 152 -95 190 -173 l25 -50 3 -392 3 -393 -115 0 -116 0 0 175
0 175 -135 0 -135 0 0 -175 0 -175 -120 0 -121 0 3 373 c3 364 3 373 27 437
37 99 116 172 224 205 69 22 192 19 267 -7z m820 -93 c0 -113 0 -115 -22 -115
-122 0 -236 -119 -256 -265 -12 -90 12 -162 80 -246 21 -25 99 -67 151 -80
l47 -11 0 -109 c0 -60 -3 -109 -7 -109 -72 3 -163 25 -215 51 -84 42 -193 153
-236 239 -32 64 -61 177 -62 235 0 56 28 162 60 231 72 151 270 292 413 294
l47 0 0 -115z m1830 86 c68 -35 105 -66 140 -117 56 -83 60 -120 60 -521 l0
-363 -115 0 -115 0 -2 173 -3 172 -132 3 -133 3 0 -176 0 -175 -120 0 -120 0
0 350 c0 444 9 492 113 587 80 72 146 94 277 90 85 -3 113 -8 150 -26z m1108
-2 c34 -17 77 -48 95 -70 31 -36 67 -52 67 -29 0 17 68 75 116 99 67 34 166
40 225 14 59 -26 115 -76 142 -127 21 -40 22 -51 25 -463 l3 -423 -116 0 -115
0 0 375 c0 400 -2 419 -49 445 -33 17 -78 11 -108 -14 l-28 -24 -3 -391 -3
-391 -119 0 -120 0 0 390 0 391 -26 26 c-21 21 -32 25 -65 20 -24 -3 -47 -14
-59 -29 -18 -22 -19 -41 -20 -410 l0 -388 -120 0 -121 0 3 418 c3 395 4 419
23 453 28 50 54 80 95 111 48 35 85 46 156 47 49 1 73 -5 122 -30z m-4596 10
c107 -23 183 -81 228 -176 34 -72 34 -189 -1 -263 -31 -67 -77 -114 -144 -147
-44 -22 -66 -25 -185 -29 l-135 -4 -3 -195 -2 -195 -120 0 -120 0 0 503 c0
277 3 507 7 510 11 12 419 8 475 -4z m1976 -184 c1 -104 5 -196 7 -204 7 -17
85 -7 135 19 82 42 100 89 100 257 l0 124 118 -3 117 -3 3 -140 c2 -112 -1
-149 -14 -184 -22 -57 -75 -115 -137 -151 l-49 -28 34 -16 c50 -24 106 -73
136 -120 26 -40 27 -46 30 -208 l4 -168 -121 0 -121 0 0 130 c0 139 -10 182
-53 228 -33 35 -95 62 -144 62 l-43 0 0 -210 0 -210 -115 0 -115 0 0 510 0
511 113 -3 112 -3 3 -190z m5952 95 l0 -100 -105 0 -105 0 0 -410 0 -410 -115
0 -115 0 -2 408 -3 407 -107 3 -108 3 0 93 c0 51 3 96 7 99 3 4 152 7 330 7
l323 0 0 -100z m282 -87 l3 -188 128 -3 127 -3 0 191 0 191 118 -3 117 -3 3
-507 2 -508 -120 0 -120 0 0 228 0 228 -127 0 -128 -1 -3 -227 -2 -228 -115 0
-115 0 -2 510 -3 510 117 0 118 0 2 -187z m-4397 -1423 c523 -38 1053 -169
1531 -378 437 -192 916 -509 1259 -833 33 -31 79 -74 101 -95 118 -111 310
-332 485 -560 36 -47 69 -74 150 -124 380 -233 626 -465 743 -699 79 -159 104
-255 141 -551 38 -304 73 -501 112 -630 49 -166 75 -214 158 -295 62 -61 94
-81 239 -155 230 -116 276 -159 276 -252 0 -77 -48 -126 -196 -201 -53 -27
-114 -87 -114 -113 0 -33 34 -76 133 -168 119 -110 143 -146 133 -198 -9 -47
-75 -113 -141 -143 -101 -44 -110 -92 -31 -168 69 -67 78 -84 65 -131 -17 -62
-55 -93 -148 -123 -148 -49 -154 -90 -40 -243 93 -124 123 -189 123 -260 0
-68 -28 -125 -90 -184 -96 -93 -211 -134 -394 -142 -121 -6 -179 -2 -415 30
-60 8 -153 18 -206 22 l-96 7 -67 -128 c-304 -577 -763 -1111 -1301 -1512
-675 -502 -1435 -794 -2305 -885 -159 -16 -683 -16 -845 0 -661 68 -1289 267
-1840 581 -727 415 -1352 1051 -1735 1764 -88 164 -97 176 -123 177 -16 0
-124 -12 -240 -27 -269 -35 -507 -38 -607 -9 -147 43 -241 110 -289 208 -51
102 -42 152 53 291 103 149 118 175 118 213 0 47 -24 71 -91 90 -78 23 -122
49 -154 94 -42 59 -37 84 32 150 32 30 62 66 66 79 11 35 -11 66 -69 96 -108
58 -156 115 -156 187 0 29 14 47 124 153 69 66 130 132 135 147 21 57 -14 97
-151 171 -118 64 -150 103 -150 184 0 84 57 133 275 241 134 66 210 116 258
169 53 58 105 150 133 233 33 100 82 391 131 785 38 310 153 550 361 759 92
91 195 170 427 325 163 109 170 115 244 214 206 274 487 571 729 775 676 565
1490 922 2357 1033 274 35 650 47 902 29z m-2975 -9791 l0 -419 -85 0 -85 0 0
420 0 419 73 3 c39 2 78 1 85 -1 9 -2 12 -95 12 -422z m3142 408 c4 -7 8 -64
8 -128 l0 -116 63 14 c135 28 237 -22 275 -136 8 -21 12 -113 12 -247 l0 -214
-95 0 -95 0 0 184 c0 166 -2 186 -19 207 -26 32 -96 32 -123 -1 -16 -20 -18
-44 -18 -206 l0 -184 -95 0 -94 0 -3 82 c-2 46 -2 236 0 423 l2 340 88 -3 c52
-2 90 -8 94 -15z m1732 -22 c4 -25 4 -64 1 -88 -7 -42 -7 -42 -43 -39 -26 3
-45 -2 -63 -17 -29 -22 -44 -60 -26 -62 7 0 28 -1 47 -2 l35 -2 3 -84 c3 -94
-1 -101 -58 -101 l-35 0 3 -205 3 -205 -96 0 -95 0 0 310 c0 179 4 329 11 357
24 114 116 183 240 183 l67 0 6 -45z m-6355 -82 l-1 -118 108 -6 c127 -7 165
-22 208 -80 36 -51 45 -120 46 -345 l0 -170 -100 0 -100 1 0 186 c0 200 -2
206 -56 223 -30 9 -91 -19 -100 -46 -3 -12 -7 -100 -7 -195 l0 -173 -94 0 -93
0 0 83 c0 70 0 747 0 755 0 1 43 2 96 2 l95 0 -2 -117z m588 93 c25 -21 28
-31 28 -83 0 -79 -25 -108 -95 -108 -57 0 -81 18 -100 75 -11 34 -11 44 4 74
9 19 26 42 39 51 33 23 91 19 124 -9z m1552 -283 c-1 -346 -4 -368 -71 -447
-42 -49 -104 -82 -185 -98 -96 -19 -198 17 -275 99 -77 81 -97 229 -46 334 45
91 130 158 218 173 45 8 130 -8 141 -25 5 -8 9 -49 9 -92 l0 -77 -53 6 c-97
11 -153 -38 -145 -125 9 -87 81 -126 159 -85 54 27 58 54 58 345 0 145 0 272
1 282 0 15 11 17 95 17 l95 0 -1 -307z m236 284 c58 -50 39 -163 -33 -193 -42
-17 -56 -18 -46 -2 4 7 3 8 -4 4 -33 -20 -82 47 -82 112 0 87 101 135 165 79z
m1920 -154 l0 -61 48 -6 47 -7 0 -83 c0 -91 -3 -96 -61 -96 l-29 0 0 -94 c0
-104 8 -122 61 -133 l29 -5 0 -89 0 -89 -45 0 c-55 0 -133 25 -163 53 -28 26
-48 68 -57 122 -9 49 -8 532 1 546 3 6 41 9 87 7 l82 -3 0 -62z m2863 -6 c2
-41 7 -65 13 -61 5 3 28 3 50 -1 l40 -7 -3 -86 -3 -87 -42 -3 -43 -3 0 -94 c0
-103 7 -118 60 -130 l30 -7 0 -90 0 -91 -64 5 c-127 11 -188 68 -206 193 -5
39 -10 175 -10 303 l0 233 88 -3 87 -3 3 -68z m-7450 -84 c7 -10 12 -46 12
-86 0 -61 -2 -68 -18 -63 -10 4 -27 0 -37 -8 -22 -16 -19 -27 34 -155 48 -113
38 -182 -34 -237 -41 -31 -152 -52 -184 -34 -19 9 -21 20 -21 90 0 76 1 80 23
80 12 0 29 5 37 10 16 10 15 15 -46 159 -50 123 -14 221 96 256 53 17 120 11
138 -12z m1354 7 c69 -21 134 -75 162 -135 15 -30 13 -65 -3 -65 -5 0 -157
-111 -234 -171 -39 -30 -20 -46 24 -20 79 48 75 48 142 11 34 -18 66 -36 71
-41 10 -9 -26 -64 -68 -102 -98 -87 -241 -98 -351 -25 -99 66 -158 200 -135
305 27 119 107 212 212 245 70 22 103 22 180 -2z m1740 9 c92 -20 158 -66 200
-142 21 -39 23 -55 26 -244 l3 -203 -100 0 -101 0 0 178 c0 197 -5 215 -61
227 -43 10 -86 -11 -98 -47 -6 -17 -11 -105 -11 -194 l0 -164 -96 0 -95 0 3
202 c3 190 5 206 26 246 31 59 81 102 144 129 62 25 89 27 160 12z m694 -10
c80 -25 140 -77 167 -146 43 -111 47 -408 7 -517 -23 -60 -72 -111 -142 -147
-52 -27 -198 -38 -265 -20 l-43 12 0 89 c0 75 3 90 16 90 8 0 13 -3 11 -7 -7
-12 111 -14 152 -3 38 10 80 45 68 56 -3 3 -45 6 -92 5 -103 -2 -152 16 -211
76 -48 49 -79 134 -79 219 0 70 44 171 97 222 49 49 143 87 224 91 12 1 53 -9
90 -20z m1969 -8 c61 -27 162 -143 150 -172 -3 -8 -36 -34 -73 -59 -37 -24
-69 -47 -72 -50 -3 -3 -32 -25 -65 -49 -33 -24 -62 -46 -64 -48 -3 -2 0 -8 7
-15 8 -8 23 -3 58 21 26 17 51 31 56 31 5 0 40 -16 79 -35 l70 -36 -22 -37
c-32 -53 -66 -82 -127 -110 -47 -21 -64 -24 -136 -20 -56 3 -93 11 -121 25
-173 90 -213 321 -83 476 36 43 119 93 168 100 46 7 135 -4 175 -22z m2733 9
c19 -18 22 -32 22 -94 l0 -73 -39 -7 c-63 -10 -66 -18 -70 -222 l-3 -184 -90
0 -90 0 5 208 c3 131 9 221 17 244 17 49 85 113 140 132 61 20 82 20 108 -4z
m457 -3 c49 -17 122 -81 146 -128 24 -47 20 -54 -50 -101 -152 -102 -238 -178
-203 -178 15 0 69 30 82 45 18 22 33 19 110 -21 l70 -37 -22 -36 c-61 -99
-194 -154 -311 -129 -149 32 -252 177 -234 329 24 199 222 322 412 256z
m-8045 -284 l0 -288 -90 0 -90 0 0 288 0 287 90 0 90 0 0 -287z m1780 -3 l0
-290 -85 0 -86 0 1 290 1 290 85 0 84 0 0 -290z m4150 114 l0 -176 29 -29 c16
-16 39 -29 51 -29 34 0 80 29 90 56 6 14 10 99 10 190 l0 164 83 0 c51 0 88
-5 95 -12 15 -15 16 -202 2 -331 -9 -93 -30 -141 -80 -184 -84 -73 -212 -89
-313 -40 -75 37 -132 103 -146 168 -12 54 -15 381 -4 392 3 4 46 7 95 7 l88 0
0 -176z m950 7 c0 -93 4 -181 9 -194 21 -54 114 -59 150 -8 18 25 20 44 20
187 0 87 0 165 0 172 1 10 24 12 94 10 l92 -3 0 -195 c0 -186 -1 -197 -24
-240 -45 -87 -103 -130 -202 -151 -113 -24 -248 37 -298 136 -25 47 -26 58
-29 240 -1 104 0 196 3 203 3 8 32 12 95 12 l90 0 0 -169z"/>
<path d="M8190 12023 c-93 -10 -193 -93 -230 -191 -32 -84 -25 -206 15 -281
54 -99 142 -151 254 -151 73 0 121 14 177 52 177 119 157 446 -35 542 -47 24
-118 35 -181 29z"/>
<path d="M8541 11784 c0 -11 3 -14 6 -6 3 7 2 16 -1 19 -3 4 -6 -2 -5 -13z"/>
<path d="M860 12196 c0 -2 7 -7 16 -10 8 -3 12 -2 9 4 -6 10 -25 14 -25 6z"/>
<path d="M939 12025 c-59 -26 -79 -74 -79 -189 l0 -96 43 -1 c23 0 83 0 132 0
l90 0 3 83 c3 98 -14 164 -48 189 -36 26 -98 32 -141 14z"/>
<path d="M2995 12031 c-34 -15 -74 -62 -80 -95 -3 -17 -5 -69 -3 -115 l3 -84
130 0 130 1 3 94 c3 105 -12 157 -51 183 -29 18 -105 28 -132 16z"/>
<path d="M3701 11694 c0 -11 3 -14 6 -6 3 7 2 16 -1 19 -3 4 -6 -2 -5 -13z"/>
<path d="M5613 12026 c-59 -27 -74 -66 -71 -184 l3 -103 130 -1 130 0 1 98 c1
107 -10 146 -51 177 -33 24 -103 31 -142 13z"/>
<path d="M5335 11999 c-4 -6 -5 -12 -2 -15 2 -3 7 2 10 11 7 17 1 20 -8 4z"/>
<path d="M2490 12116 c0 -2 8 -10 18 -17 15 -13 16 -12 3 4 -13 16 -21 21 -21
13z"/>
<path d="M2108 11899 l3 -111 104 4 c93 3 107 6 127 26 19 18 23 34 23 81 0
49 -4 64 -24 85 -23 25 -29 26 -130 26 l-106 0 3 -111z"/>
<path d="M4530 10173 c-543 -193 -894 -376 -1284 -668 -407 -305 -838 -772
-1010 -1096 -25 -47 -65 -145 -90 -219 -127 -383 -138 -659 -39 -943 77 -224
158 -353 455 -732 206 -264 248 -568 105 -776 -54 -79 -128 -131 -235 -165
-71 -23 -95 -26 -159 -21 -42 3 -80 10 -85 15 -18 18 34 59 91 71 93 20 144
75 172 186 9 36 9 62 0 115 -17 96 -54 150 -125 185 -50 24 -64 27 -143 24
-72 -3 -98 -9 -147 -33 -127 -62 -236 -215 -288 -401 -18 -65 -22 -106 -22
-220 0 -125 3 -147 25 -205 98 -256 394 -472 759 -553 77 -17 129 -21 275 -21
162 0 191 3 288 27 121 30 127 31 127 18 0 -5 -24 -54 -53 -109 -176 -327
-244 -614 -217 -918 32 -362 150 -631 452 -1024 53 -69 56 -76 41 -92 -9 -10
-20 -18 -26 -18 -17 0 -132 97 -191 162 -32 35 -89 95 -125 133 -121 127 -225
247 -495 570 -148 176 -300 350 -339 387 -64 61 -181 137 -193 125 -3 -3 23
-52 57 -109 443 -735 1035 -1294 1754 -1657 223 -113 548 -251 591 -251 7 0
-14 35 -49 78 -169 209 -278 462 -323 750 -14 86 -17 194 -20 556 l-2 450 -79
70 c-156 140 -297 283 -380 386 -328 407 -525 845 -608 1352 -108 660 6 1312
332 1893 137 244 293 445 500 645 76 75 209 193 231 206 2 1 5 181 7 400 3
416 9 490 51 656 69 275 184 491 365 681 83 89 92 105 49 90z"/>
<path d="M7198 10106 c197 -208 330 -458 392 -736 32 -146 40 -268 40 -632 0
-194 3 -362 6 -373 3 -11 28 -38 56 -60 73 -58 285 -268 358 -355 309 -367
525 -802 624 -1256 41 -190 56 -306 62 -504 21 -641 -137 -1204 -484 -1725
-150 -224 -290 -383 -509 -577 l-113 -99 0 -392 c0 -513 -12 -646 -81 -870
-55 -179 -141 -341 -263 -493 -35 -43 -62 -81 -60 -83 2 -2 49 13 106 34 433
159 866 405 1238 703 290 233 728 725 962 1082 65 100 113 189 105 196 -11 11
-110 -51 -161 -101 -29 -27 -173 -192 -322 -365 -148 -173 -354 -409 -459
-523 -104 -115 -203 -224 -219 -243 -16 -19 -56 -56 -90 -81 -33 -26 -90 -71
-125 -101 -35 -29 -66 -51 -68 -48 -3 3 46 77 108 166 258 364 317 463 389
653 75 200 111 458 90 648 -25 235 -76 399 -195 635 -47 92 -84 169 -82 171 2
1 41 -8 88 -22 224 -65 510 -57 747 21 91 31 252 109 331 163 146 99 238 217
287 367 26 79 29 103 29 214 0 143 -13 198 -76 325 -110 220 -223 307 -399
308 -149 1 -240 -84 -256 -240 -17 -163 73 -266 254 -289 28 -4 52 -10 52 -13
0 -17 -113 -61 -158 -61 -155 1 -329 107 -393 240 -73 152 -65 363 22 543 32
68 67 118 255 368 227 302 302 447 360 694 15 62 19 117 18 250 0 162 -2 177
-37 317 -67 265 -123 403 -220 548 -172 254 -434 549 -683 769 -154 136 -151
133 -269 222 -343 260 -740 475 -1146 622 -199 72 -196 73 -111 -17z"/>
<path d="M2240 1220 c0 -5 5 -10 11 -10 5 0 7 5 4 10 -3 6 -8 10 -11 10 -2 0
-4 -4 -4 -10z"/>
<path d="M2615 802 c-34 -28 -55 -65 -55 -94 0 -16 5 -28 11 -28 17 0 164 110
164 123 0 20 -97 20 -120 -1z"/>
<path d="M5098 973 c7 -3 16 -2 19 1 4 3 -2 6 -13 5 -11 0 -14 -3 -6 -6z"/>
<path d="M5048 794 c-54 -29 -74 -109 -41 -165 31 -52 98 -69 169 -42 11 4 14
-9 14 -72 0 -57 3 -76 13 -72 9 3 12 38 11 133 -2 155 -15 197 -68 219 -44 19
-63 18 -98 -1z"/>
<path d="M6978 786 c-33 -33 -48 -70 -40 -107 2 -14 7 -13 30 7 15 13 52 41
82 62 68 48 71 66 10 70 -41 3 -50 -1 -82 -32z"/>
<path d="M7220 580 c0 -5 5 -10 11 -10 5 0 7 5 4 10 -3 6 -8 10 -11 10 -2 0
-4 -4 -4 -10z"/>
<path d="M10258 973 c12 -2 32 -2 45 0 12 2 2 4 -23 4 -25 0 -35 -2 -22 -4z"/>
<path d="M10180 793 c-30 -27 -54 -91 -41 -111 3 -6 30 7 62 31 31 23 69 51
84 63 38 27 26 44 -30 44 -35 0 -52 -6 -75 -27z"/>
<path d="M10420 580 c0 -5 5 -10 11 -10 5 0 7 5 4 10 -3 6 -8 10 -11 10 -2 0
-4 -4 -4 -10z"/>
</g>
</svg>
